<?xml version="1.0" encoding="UTF-8" standalone="no"?>
<!-- Created with Inkscape (http://www.inkscape.org/) -->

<svg
   xmlns:dc="http://purl.org/dc/elements/1.1/"
   xmlns:cc="http://creativecommons.org/ns#"
   xmlns:rdf="http://www.w3.org/1999/02/22-rdf-syntax-ns#"
   xmlns:svg="http://www.w3.org/2000/svg"
   xmlns="http://www.w3.org/2000/svg"
   xmlns:sodipodi="http://sodipodi.sourceforge.net/DTD/sodipodi-0.dtd"
   xmlns:inkscape="http://www.inkscape.org/namespaces/inkscape"
   width="210mm"
   height="297mm"
   viewBox="0 0 210 297"
   version="1.1"
   id="svg8"
   inkscape:version="0.92.1 r15371"
   sodipodi:docname="goblin.svg">
  <defs
     id="defs2" />
  <sodipodi:namedview
     id="base"
     pagecolor="#ffffff"
     bordercolor="#666666"
     borderopacity="1.0"
     inkscape:pageopacity="0.0"
     inkscape:pageshadow="2"
     inkscape:zoom="1.4"
     inkscape:cx="1060.4267"
     inkscape:cy="482.86235"
     inkscape:document-units="mm"
     inkscape:current-layer="layer1"
     showgrid="false"
     inkscape:window-width="3840"
     inkscape:window-height="2066"
     inkscape:window-x="-11"
     inkscape:window-y="-11"
     inkscape:window-maximized="1" />
  <metadata
     id="metadata5">
    <rdf:RDF>
      <cc:Work
         rdf:about="">
        <dc:format>image/svg+xml</dc:format>
        <dc:type
           rdf:resource="http://purl.org/dc/dcmitype/StillImage" />
        <dc:title></dc:title>
      </cc:Work>
    </rdf:RDF>
  </metadata>
  <g
     inkscape:label="Layer 1"
     inkscape:groupmode="layer"
     id="layer1">
    <path
       style="fill:#445016;stroke-width:0.26536787"
       d="m 94.573252,95.869626 c -28.889177,5.690744 -43.560255,36.602384 -43.930473,70.109454 -0.240662,21.78142 24.842143,8.31228 54.045241,4.75687 29.55329,-3.59805 63.81311,27.02269 52.21871,-21.84503 C 149.1632,116.25371 126.98639,91.702416 97.846405,95.343276"
       id="path10"
       inkscape:connector-curvature="0"
       sodipodi:nodetypes="csssc" />
    <path
       style="fill:#2d5016;stroke-width:0.26458332"
       d="m 64.770063,133.85562 c -0.891635,5.39271 -5.782564,9.04389 -10.984892,8.20045 -5.202327,-0.84344 -8.790634,-5.86933 -8.059243,-11.28802 0.731392,-5.4187 -31.799423,-72.791941 10.736651,-8.54815 2.908535,4.39287 8.960415,5.5852 8.389955,11.02473"
       id="path92-1"
       inkscape:connector-curvature="0"
       sodipodi:nodetypes="csssc" />
    <path
       sodipodi:nodetypes="csssc"
       inkscape:connector-curvature="0"
       id="path13"
       d="m 94.573252,102.05831 c -28.889177,8.45633 -43.560255,40.77244 -43.930473,74.31495 -0.240662,21.80446 24.842143,5.93413 54.045241,-0.41692 29.55329,-6.4272 63.81311,20.91382 52.21871,-26.84396 -7.74353,-31.89591 -29.92034,-54.324207 -59.060325,-47.89376"
       style="fill:#2d5016;stroke-width:0.26536787" />
    <path
       style="fill:#552200;stroke-width:0.53344208"
       d="M 87.529221,25.672154 C 85.833121,14.148436 76.52943,6.3462059 66.633383,8.1485587 56.737338,9.9509103 49.911537,20.690768 51.302814,32.270004 52.694094,43.849266 -9.1871417,187.81959 71.726441,50.536609 77.259157,41.149455 88.771249,38.601552 87.6861,26.977784"
       id="path92-1-7"
       inkscape:connector-curvature="0"
       sodipodi:nodetypes="csssc" />
    <path
       style="fill:#445016;stroke-width:0.16734862"
       d="M 92.823275,110.31371 C 77.377756,106.0807 69.533909,83.087345 69.335972,58.163406 69.207302,41.961481 82.617753,51.980388 98.231108,54.625041 114.03169,57.301427 132.3486,34.524456 126.1497,70.874279 122.00964,95.151186 110.15286,113.41346 94.573252,110.70523"
       id="path10-7"
       inkscape:connector-curvature="0"
       sodipodi:nodetypes="csssc" />
    <path
       sodipodi:nodetypes="csssc"
       inkscape:connector-curvature="0"
       id="path13-5"
       d="M 92.823275,105.71032 C 77.377756,99.420148 69.533909,75.382087 69.335972,50.431783 69.207302,34.212725 82.617753,46.017734 98.231108,50.741904 114.03169,55.522722 132.3486,35.185344 126.1497,70.709553 122.00964,94.435044 110.15286,111.11814 94.573252,106.33491"
       style="fill:#2d5016;stroke-width:0.16734862" />
    <path
       style="fill:#786721;stroke-width:0.21144864"
       d="m 94.336773,68.477301 c -0.332739,-2.02225 -2.150161,-2.80357 -4.099321,-3.075146 -9.670127,-1.347333 -7.393609,-1.156 -3.007532,4.232976 1.327546,1.631097 4.63569,4.945576 4.006682,3.205529 -3.030311,-8.382851 1.545411,-0.271077 1.332528,-2.310885"
       id="path33"
       inkscape:connector-curvature="0"
       sodipodi:nodetypes="csssc" />
    <path
       style="fill:#786721;stroke-width:0.21144864"
       d="m 103.79624,69.958404 c 0.33274,-2.02225 2.15016,-2.80357 4.09932,-3.075146 9.67014,-1.347333 7.39362,-1.156 3.00754,4.232976 -1.32755,1.631097 -4.6357,4.945576 -4.00669,3.205529 3.03032,-8.382851 -1.54541,-0.271077 -1.33253,-2.310885"
       id="path33-0"
       inkscape:connector-curvature="0"
       sodipodi:nodetypes="csssc" />
    <path
       style="fill:#786721;stroke-width:0.38245958"
       d="m 104.5965,90.174412 c -1.13814,1.586161 -1.85631,3.537757 -4.36168,3.2439 -2.588388,-0.303594 -5.004442,-2.076047 -4.878516,-3.880489 0.0052,-0.07399 0.0146,-0.148036 0.02848,-0.222035 0.352252,-1.87865 2.434215,-1.932351 4.958346,-1.806075 2.3274,0.116434 4.52811,0.778824 4.25337,2.664699"
       id="path51"
       inkscape:connector-curvature="0"
       sodipodi:nodetypes="cssssc" />
    <path
       style="fill:#280b0b;stroke-width:0.33907127"
       d="m 104.09777,90.610007 c -1.15771,1.284104 -1.97479,2.924999 -4.178604,2.444437 -2.276849,-0.496487 -4.266536,-2.260878 -3.990143,-3.826119 0.01137,-0.06418 0.02647,-0.128031 0.04557,-0.191441 0.48465,-1.609855 2.343146,-1.470771 4.578927,-1.134943 2.06153,0.309653 3.96055,1.084974 3.54425,2.708066"
       id="path51-7"
       inkscape:connector-curvature="0"
       sodipodi:nodetypes="cssssc" />
    <path
       style="fill:#eef4d7;stroke-width:0.20509015"
       d="m 99.239364,87.719307 1.987376,0.236236 -0.25549,3.16555 c -0.62454,0 -0.44942,-7.414957 -1.873627,0 0,-1.110305 -0.828584,-3.098944 0.141741,-3.401786 z"
       id="rect69"
       inkscape:connector-curvature="0"
       sodipodi:nodetypes="ccccc" />
    <path
       style="fill:#eef4d7;stroke-width:0.13151045"
       d="m 99.569262,92.951443 c 0.514348,0.246318 1.028708,0.144445 1.543058,0.193104 l -0.10766,-1.689367 c -0.46733,0 -0.52004,3.907499 -1.585737,-0.167044 0,0.610116 -0.57573,1.496893 0.150339,1.663307 z"
       id="rect69-6"
       inkscape:connector-curvature="0"
       sodipodi:nodetypes="ccccc" />
    <path
       style="fill:#2d5016;stroke-width:0.26458332"
       d="m 88.307228,211.29002 c -0.891637,-5.39271 -5.782565,-9.04389 -10.984893,-8.20045 -5.202327,0.84344 -6.191898,6.14894 -8.059243,11.28802 -5.883191,16.19101 6.565161,78.27259 16.78427,14.21779 0.830021,-5.20268 2.912796,-11.25484 2.342335,-16.69437"
       id="path92"
       inkscape:connector-curvature="0"
       sodipodi:nodetypes="csssc" />
    <path
       style="fill:#2d5016;stroke-width:0.26458332"
       d="m 121.53507,209.89943 c 0.89164,-5.39271 5.78256,-9.04389 10.98489,-8.20045 5.20233,0.84344 6.1919,6.14894 8.05925,11.28802 5.88319,16.19101 -6.56517,78.27259 -16.78427,14.21779 -0.83003,-5.20268 -2.9128,-11.25484 -2.34234,-16.69437"
       id="path92-4"
       inkscape:connector-curvature="0"
       sodipodi:nodetypes="csssc" />
    <path
       style="fill:#502d16;stroke-width:0.26458332"
       d="m 141.92727,216.79635 c -13.02222,10.10901 -44.921182,10.2521 -59.151079,8.07985 -14.229898,-2.17225 -30.848553,-23.62076 -28.847978,-37.57644 2.000576,-13.95568 36.886944,-12.70155 60.928907,-12.7551 15.88813,-0.0354 44.92008,-8.48305 43.35972,5.5263"
       id="path89"
       inkscape:connector-curvature="0"
       sodipodi:nodetypes="csssc" />
    <path
       style="fill:#225500;stroke-width:0.28056389"
       d="m 142.69383,122.00692 c -1.0026,-5.39271 -6.50219,-9.04389 -12.35193,-8.20045 -5.84973,0.84344 -9.88459,5.86933 -9.06218,11.28802 0.82241,5.4187 -35.756729,72.79195 12.07279,8.54815 3.27049,-4.39287 10.0755,-5.5852 9.43405,-11.02473"
       id="path92-1-5"
       inkscape:connector-curvature="0"
       sodipodi:nodetypes="csssc" />
  </g>
</svg>
