<?xml version="1.0" encoding="UTF-8" standalone="no"?>
<!-- Created with Inkscape (http://www.inkscape.org/) -->

<svg
   xmlns:dc="http://purl.org/dc/elements/1.1/"
   xmlns:cc="http://creativecommons.org/ns#"
   xmlns:rdf="http://www.w3.org/1999/02/22-rdf-syntax-ns#"
   xmlns:svg="http://www.w3.org/2000/svg"
   xmlns="http://www.w3.org/2000/svg"
   xmlns:sodipodi="http://sodipodi.sourceforge.net/DTD/sodipodi-0.dtd"
   xmlns:inkscape="http://www.inkscape.org/namespaces/inkscape"
   width="210mm"
   height="297mm"
   viewBox="0 0 210 297"
   version="1.1"
   id="svg176"
   inkscape:version="0.92.1 r15371"
   sodipodi:docname="hellhound attempt.svg">
  <defs
     id="defs170" />
  <sodipodi:namedview
     id="base"
     pagecolor="#ffffff"
     bordercolor="#666666"
     borderopacity="1.0"
     inkscape:pageopacity="0.0"
     inkscape:pageshadow="2"
     inkscape:zoom="1.979899"
     inkscape:cx="444.03064"
     inkscape:cy="409.91393"
     inkscape:document-units="mm"
     inkscape:current-layer="layer1"
     showgrid="false"
     inkscape:window-width="3840"
     inkscape:window-height="2066"
     inkscape:window-x="-11"
     inkscape:window-y="-11"
     inkscape:window-maximized="1" />
  <metadata
     id="metadata173">
    <rdf:RDF>
      <cc:Work
         rdf:about="">
        <dc:format>image/svg+xml</dc:format>
        <dc:type
           rdf:resource="http://purl.org/dc/dcmitype/StillImage" />
        <dc:title></dc:title>
      </cc:Work>
    </rdf:RDF>
  </metadata>
  <g
     inkscape:label="Layer 1"
     inkscape:groupmode="layer"
     id="layer1">
    <path
       style="fill:#502d16;stroke-width:0.26458332"
       d="m 157.06411,143.26268 c -1.63184,7.62644 -8.97939,12.25545 -15.02597,5.71726 -6.51503,-7.04474 -13.95011,-5.89507 -12.61154,-13.55826 1.33857,-7.66318 26.25879,-20.11122 19.91705,-12.89071 -0.84032,0.95676 16.39897,7.89866 15.35495,15.59131"
       id="path178"
       inkscape:connector-curvature="0"
       sodipodi:nodetypes="csssc" />
    <path
       style="fill:#502d16;stroke-width:0.26458332"
       d="m 135.14642,162.57923 c -12.33667,12.85277 -18.3549,6.12955 -48.432873,4.38535 -30.077978,-1.74419 -38.373316,7.3843 -34.144664,-3.8213 4.228652,-11.2056 22.196691,-44.29383 49.246497,-30.77338 20.94781,10.47047 43.5205,10.21358 40.22231,21.46227"
       id="path180"
       inkscape:connector-curvature="0"
       sodipodi:nodetypes="csssc" />
    <path
       style="fill:#a02c2c;stroke-width:0.26458332"
       d="m 144.05984,133.89908 c -0.19779,0.59357 -1.28278,0.99546 -2.43686,0.90262 -1.15407,-0.0928 -0.54693,-0.27854 -0.38467,-0.87496 0.16225,-0.59643 -0.18045,-1.38284 0.97862,-1.30838 1.15907,0.0745 1.98775,0.61475 1.86121,1.21347"
       id="path199"
       inkscape:connector-curvature="0"
       sodipodi:nodetypes="cscsc" />
    <path
       style="fill:#501616;stroke-width:0.26458332"
       d="m 143.88457,133.98196 c -0.0527,-0.11321 -0.66042,-0.52059 -0.96765,-0.50288 -0.30723,0.0177 -0.20022,0.45394 -0.15703,0.5677 0.0432,0.11375 0.32551,0.19365 0.63407,0.17945 0.30856,-0.0142 0.52917,-0.11725 0.49548,-0.23144"
       id="path217"
       inkscape:connector-curvature="0"
       sodipodi:nodetypes="ccccc" />
    <path
       style="fill:#a02c2c;stroke-width:0.26458332"
       d="m 148.2255,133.78101 c 0.19779,0.59357 1.28278,0.99546 2.43686,0.90262 1.15407,-0.0928 0.54693,-0.27854 0.38467,-0.87496 -0.16225,-0.59643 0.18045,-1.38284 -0.97862,-1.30838 -1.15907,0.0745 -1.98775,0.61475 -1.86121,1.21347"
       id="path199-2"
       inkscape:connector-curvature="0"
       sodipodi:nodetypes="cscsc" />
    <path
       style="fill:#501616;stroke-width:0.26458332"
       d="m 148.40077,133.86389 c 0.0527,-0.11321 0.66042,-0.52059 0.96765,-0.50288 0.30723,0.0177 0.20022,0.45394 0.15703,0.5677 -0.0432,0.11375 -0.32551,0.19365 -0.63407,0.17945 -0.30856,-0.0142 -0.52917,-0.11725 -0.49548,-0.23144"
       id="path217-9"
       inkscape:connector-curvature="0"
       sodipodi:nodetypes="ccccc" />
    <path
       style="fill:#241c1c;stroke-width:0.19559053"
       d="m 150.87037,145.28193 c -0.38942,0.59467 -1.32278,0.63216 -3.7619,0.86778 -2.24365,0.21673 -2.53629,-0.48292 -2.21687,-1.08046 0.31943,-0.59755 1.10429,-1.18157 3.38621,-1.10696 2.28191,0.0746 3.24521,0.0134 2.99608,0.61326"
       id="path238"
       inkscape:connector-curvature="0"
       sodipodi:nodetypes="cscsc" />
    <path
       style="fill:#fff6d5;stroke-width:0.32329249"
       d="m 146.12865,144.09403 0.5763,-0.0249 -0.26727,2.68105 -0.15034,-0.51127 z"
       id="rect256"
       inkscape:connector-curvature="0"
       sodipodi:nodetypes="ccccc" />
    <path
       style="fill:#fff6d5;stroke-width:0.32530054"
       d="m 150.67642,144.03167 -0.5763,-0.0252 0.26727,2.71446 0.15034,-0.51764 z"
       id="rect256-0"
       inkscape:connector-curvature="0"
       sodipodi:nodetypes="ccccc" />
    <path
       style="fill:#502d16;stroke-width:0.26458332"
       d="m 135.06167,129.22102 c -0.11255,1.41178 -0.32831,0.26514 -0.98498,0.0443 -0.65667,-0.22081 -6.42489,3.89686 -6.33257,2.47829 0.0923,-1.41858 2.60923,-6.73806 3.26874,-6.56095 2.76201,-2.4451 4.13123,2.45435 4.05922,3.87838"
       id="path274"
       inkscape:connector-curvature="0"
       sodipodi:nodetypes="ccscc" />
    <path
       style="fill:#502d16;stroke-width:0.22420566"
       d="m 152.16589,125.18593 c 0.0951,1.19923 0.27754,0.22522 0.83265,0.0376 0.55511,-0.18757 5.43121,3.31018 5.35317,2.10517 -0.078,-1.20501 -2.20569,-5.72363 -2.7632,-5.57318 -2.33483,-2.07699 -3.49229,2.08484 -3.43142,3.29448"
       id="path274-9"
       inkscape:connector-curvature="0"
       sodipodi:nodetypes="ccscc" />
  </g>
</svg>
